<svg width="1004" height="797" viewBox="0 0 1004 797" fill="none" xmlns="http://www.w3.org/2000/svg">
<g clip-path="url(#clip0_123_2)">
<path d="M697.553 483.106H290.612V547.387H697.553V483.106Z" fill="white"/>
<path d="M650.082 536.376H334.843V600.657H650.082V536.376Z" fill="white"/>
<path d="M727.847 466.423H559.163V484.516H727.847V466.423Z" fill="white"/>
<path d="M830.152 63.6592L227.598 411.545L288.182 516.48L890.736 168.594L830.152 63.6592Z" fill="white"/>
<path d="M467.293 28.5933L81.1357 251.542L93.5805 273.097L479.737 50.1482L467.293 28.5933Z" fill="white"/>
<path d="M454.733 13.9673L68.5759 236.916L81.0206 258.471L467.178 35.5223L454.733 13.9673Z" fill="white"/>
<path d="M442.283 2.53643L56.126 225.485L68.5707 247.04L454.728 24.0913L442.283 2.53643Z" fill="white"/>
<path d="M501.958 28.588L93.5854 264.362L103.387 281.338L511.76 45.5642L501.958 28.588Z" fill="white"/>
<path d="M527.437 33.1668L103.387 277.992L113.188 294.968L537.238 50.143L527.437 33.1668Z" fill="white"/>
<path d="M563.997 28.5938L110.545 290.395L122.989 311.95L576.442 50.1487L563.997 28.5938Z" fill="white"/>
<path fill-rule="evenodd" clip-rule="evenodd" d="M798.637 0.140137H214.378L0.914795 212.505L485.55 796.103L524.212 752.723L1003.93 214.498L798.637 0.140137ZM777.293 50.14L935.865 215.719L486.892 719.45L68.578 215.719L235.011 50.14H777.293Z" fill="white"/>
</g>
<defs>
<clipPath id="clip0_123_2">
<rect width="1004" height="797" fill="white"/>
</clipPath>
</defs>
</svg>
